<svg class="logo__svg" xmlns="http://www.w3.org/2000/svg" xmlns:xlink="http://www.w3.org/1999/xlink" viewBox="0 0 300 114.4"><style>.logo__part{fill:url(#pattern);}</style><defs><pattern id="pattern" patternUnits="userSpaceOnUse" width="390" height="150"><image xlink:href="assets/images/pattern1.jpg" width="390" height="150"/></pattern></defs><path class="logo__part" d="M268.8 23.8c-7.3 0-12.8 2.8-18.8 7.5v-4.4c0-2.6-1-3.5-4.1-2.9l-12.1 2.6c-2 .4-2.8 1.3-2.8 3.3v13.5c-5-11.8-15.4-19.7-29.3-19.7-13.5 0-23.7 7.6-29.7 19.2V3.1c0-2.6-.7-3.5-3.8-2.9l-11.7 2.6c-2 .4-2.5 1.3-2.5 3.3v32.6c0 1.3.2 1.8 1.5 2.6 5.3 3.5 8.6 9.5 8.6 15.9 0 6.2-3.3 12.4-8.6 15.9-1.3.9-1.5 1.3-1.5 2.6v11.7c0 2.6 1.1 3.5 4.2 2.9l11.5-2.6c2-.4 2.3-1.3 2.3-3.3V72.2c6 11.1 15.4 18.4 29.9 18.4 5.5 0 11.4-1.1 15.8-3.1 3.1-1.3 3-2.6 2.3-4.2l-3.3-8.4c-.7-1.8-1.5-2-3.5-1.5-3.1.7-5.9 1.4-9 1.4-9.7 0-16.1-5.4-17.2-11.4h44v47.9c0 2.6 1.3 3.5 4.4 2.9l11.9-2.6c2-.4 2.7-1.3 2.7-3.3V83.2c6 4.7 11.6 7.5 18.8 7.5 17.2 0 30.2-14.3 30.2-33.3 0-19.3-13-33.6-30.2-33.6m-81.7 26.7c.9-6 7.5-10.8 15.2-10.8 7.7 0 14.3 4.8 15.2 10.8h-30.4zm78.9 24c-9 0-15.9-7.5-15.9-17.2 0-9.9 6.8-17.4 15.9-17.4 8.8 0 15.4 7.5 15.4 17.4.1 9.7-6.6 17.2-15.4 17.2M132.6 41.5c1.3-.9 1.4-1.3 1.4-2.6V3.1c0-2.6-.9-3.5-4-2.9l-11.6 2.6c-2 .4-2.4 1.3-2.4 3.3v37.3c-6-11.8-15.5-19.7-29.3-19.7-18.5 0-32.5 14.3-32.5 33.5 0 3 .2 5.8.8 8.5-5 5.6-11.7 8.9-18.3 8.9-9.9 0-17.4-7.5-17.4-17.4 0-9.9 7.5-17.4 17.4-17.4 4.2 0 7.5.9 9.3 1.3 1.8.4 2.4.2 3.5-2l3.7-8.2c.7-1.3.4-2.4-.9-3.1-5.1-2.4-11.5-4.2-17.9-4.2C15.7 23.6.9 38.4.9 57.1c0 18.5 15 33.3 34 33.3 9.7 0 19.2-4.1 26.4-11.1 5.6 6.9 14.2 11.1 25.2 11.1 5.5 0 11.3-1.1 15.7-3.1 3.1-1.3 2.9-2.6 2.2-4.2l-3.3-8.4c-.7-1.8-1.5-2-3.5-1.5-3.1.7-6 1.4-9 1.4-9.7 0-16.1-5.4-17.2-11.4H116v24c0 2.6.9 3.5 4 2.9l11.6-2.6c2-.4 2.4-1.3 2.4-3.3v-8.6c0-1.3 0-1.8-1.4-2.6-5.3-3.5-8.6-9.7-8.6-15.9 0-6.2 3.3-12.1 8.6-15.6m-61.3 9c.9-6 7.5-10.8 15.2-10.8 7.7 0 14.3 4.8 15.2 10.8H71.3z"/></svg>